Genre:Comedy | Drama
Language:English
IMDb:http://www.imdb.com/title/tt1055292/
Source:TS.MD.XviD-SERENiTY/Audio:Imagine/Own Thx.


Format : MPEG-4
Format profile : Base Media
Codec ID : isom
File size : 633 MiB
Duration : 1h 45mn
Overall bit rate : 835 Kbps


Video
Format settings, CABAC : Yes
Format settings, ReFrames : 4 frames
Format settings, GOP : N=1
Codec ID : avc1
Codec ID/Info : Advanced Video Coding
Duration : 1h 45mn
Bit rate mode : Variable
Bit rate : 700 Kbps
Width : 720 pixels
Height : 384 pixels
Display aspect ratio : 1.875
Frame rate mode : Constant
Frame rate : 25.013 fps
Color space : YUV
Chroma subsampling : 4:2:0
Bit depth : 8 bits
Scan type : Progressive
Bits/(Pixel*Frame) : 0.101
Stream size : 532 MiB (84%)


Audio
ID : 2
Format : MPEG Audio
Format version : Version 1
Format profile : Layer 3
Mode : Joint stereo
Mode extension : MS Stereo
Codec ID : 6B
Duration : 1h 45mn
Bit rate mode : Constant
Bit rate : 128 Kbps
Channel(s) : 2 channels
Sampling rate : 44.1 KHz
Stream size : 97.0 MiB (15%)



Plot:
Two single adults become caregivers to an orphaned girl when their mutual best friends die in an accident.




================================== 
http://thepiratebay.org/user/hiest
==================================



Screenshots:
 
http://rapidhdd.com/images/612913vlcsnap-2010-12-16-22h34m30s238.png
 
http://www.rapidhdd.com/images/656616vlcsnap-2010-12-16-22h35m32s80.png
 
http://www.rapidhdd.com/images/919937vlcsnap-2010-12-16-22h34m36s35.png